<mxfile host="app.diagrams.net" agent="Mozilla/5.0 (Macintosh; Intel Mac OS X 10_15_7) AppleWebKit/537.36 (KHTML, like Gecko) Chrome/131.0.0.0 Safari/537.36" version="25.0.0">
  <diagram name="第 1 页" id="5m8_LA_F6-XBeVCyHke4">
    <mxGraphModel dx="2620" dy="951" grid="1" gridSize="10" guides="1" tooltips="1" connect="1" arrows="1" fold="1" page="1" pageScale="1" pageWidth="827" pageHeight="1169" math="0" shadow="0">
      <root>
        <mxCell id="0" />
        <mxCell id="1" parent="0" />
        <mxCell id="uC4ry1dEJNXP7z14yLf--20" value="" style="rounded=0;whiteSpace=wrap;html=1;fillColor=none;" vertex="1" parent="1">
          <mxGeometry x="-205" y="130" width="1170" height="590" as="geometry" />
        </mxCell>
        <mxCell id="uC4ry1dEJNXP7z14yLf--1" value="SOLBasePlayerController" style="swimlane;fontStyle=0;childLayout=stackLayout;horizontal=1;startSize=30;horizontalStack=0;resizeParent=1;resizeParentMax=0;resizeLast=0;collapsible=1;marginBottom=0;whiteSpace=wrap;html=1;" vertex="1" parent="1">
          <mxGeometry x="270" y="160" width="220" height="150" as="geometry" />
        </mxCell>
        <mxCell id="uC4ry1dEJNXP7z14yLf--2" value="- engine: TTLiveEngine" style="text;strokeColor=none;fillColor=none;align=left;verticalAlign=middle;spacingLeft=4;spacingRight=4;overflow=hidden;points=[[0,0.5],[1,0.5]];portConstraint=eastwest;rotatable=0;whiteSpace=wrap;html=1;" vertex="1" parent="uC4ry1dEJNXP7z14yLf--1">
          <mxGeometry y="30" width="220" height="30" as="geometry" />
        </mxCell>
        <mxCell id="uC4ry1dEJNXP7z14yLf--3" value="- roomInfo: TTRoomInfoCmd" style="text;strokeColor=none;fillColor=none;align=left;verticalAlign=middle;spacingLeft=4;spacingRight=4;overflow=hidden;points=[[0,0.5],[1,0.5]];portConstraint=eastwest;rotatable=0;whiteSpace=wrap;html=1;" vertex="1" parent="uC4ry1dEJNXP7z14yLf--1">
          <mxGeometry y="60" width="220" height="30" as="geometry" />
        </mxCell>
        <mxCell id="uC4ry1dEJNXP7z14yLf--4" value="- keynoteInfo: id&amp;lt;TTLEKeynoteBase&amp;gt;" style="text;strokeColor=none;fillColor=none;align=left;verticalAlign=middle;spacingLeft=4;spacingRight=4;overflow=hidden;points=[[0,0.5],[1,0.5]];portConstraint=eastwest;rotatable=0;whiteSpace=wrap;html=1;" vertex="1" parent="uC4ry1dEJNXP7z14yLf--1">
          <mxGeometry y="90" width="220" height="30" as="geometry" />
        </mxCell>
        <mxCell id="uC4ry1dEJNXP7z14yLf--5" value="- localPage: id&amp;lt;TTLEPageBase&amp;gt;" style="text;strokeColor=none;fillColor=none;align=left;verticalAlign=middle;spacingLeft=4;spacingRight=4;overflow=hidden;points=[[0,0.5],[1,0.5]];portConstraint=eastwest;rotatable=0;whiteSpace=wrap;html=1;" vertex="1" parent="uC4ry1dEJNXP7z14yLf--1">
          <mxGeometry y="120" width="220" height="30" as="geometry" />
        </mxCell>
        <mxCell id="uC4ry1dEJNXP7z14yLf--17" style="edgeStyle=orthogonalEdgeStyle;rounded=0;orthogonalLoop=1;jettySize=auto;html=1;endArrow=block;endFill=0;" edge="1" parent="1" source="uC4ry1dEJNXP7z14yLf--6" target="uC4ry1dEJNXP7z14yLf--1">
          <mxGeometry relative="1" as="geometry" />
        </mxCell>
        <mxCell id="uC4ry1dEJNXP7z14yLf--6" value="SOLBaseReplayController" style="swimlane;fontStyle=0;childLayout=stackLayout;horizontal=1;startSize=30;horizontalStack=0;resizeParent=1;resizeParentMax=0;resizeLast=0;collapsible=1;marginBottom=0;whiteSpace=wrap;html=1;" vertex="1" parent="1">
          <mxGeometry x="240" y="360" width="280" height="120" as="geometry" />
        </mxCell>
        <mxCell id="uC4ry1dEJNXP7z14yLf--7" value="- episodeReplayInfo: TTEpisodeReplayInfo" style="text;strokeColor=none;fillColor=none;align=left;verticalAlign=middle;spacingLeft=4;spacingRight=4;overflow=hidden;points=[[0,0.5],[1,0.5]];portConstraint=eastwest;rotatable=0;whiteSpace=wrap;html=1;" vertex="1" parent="uC4ry1dEJNXP7z14yLf--6">
          <mxGeometry y="30" width="280" height="30" as="geometry" />
        </mxCell>
        <mxCell id="uC4ry1dEJNXP7z14yLf--8" value="- engine: TTLiveReplayEngine" style="text;strokeColor=none;fillColor=none;align=left;verticalAlign=middle;spacingLeft=4;spacingRight=4;overflow=hidden;points=[[0,0.5],[1,0.5]];portConstraint=eastwest;rotatable=0;whiteSpace=wrap;html=1;" vertex="1" parent="uC4ry1dEJNXP7z14yLf--6">
          <mxGeometry y="60" width="280" height="30" as="geometry" />
        </mxCell>
        <mxCell id="uC4ry1dEJNXP7z14yLf--9" value="- episodeReplayMediaInfo: TTLReplayMediaInfo" style="text;strokeColor=none;fillColor=none;align=left;verticalAlign=middle;spacingLeft=4;spacingRight=4;overflow=hidden;points=[[0,0.5],[1,0.5]];portConstraint=eastwest;rotatable=0;whiteSpace=wrap;html=1;" vertex="1" parent="uC4ry1dEJNXP7z14yLf--6">
          <mxGeometry y="90" width="280" height="30" as="geometry" />
        </mxCell>
        <mxCell id="uC4ry1dEJNXP7z14yLf--18" style="edgeStyle=orthogonalEdgeStyle;rounded=0;orthogonalLoop=1;jettySize=auto;html=1;endArrow=block;endFill=0;" edge="1" parent="1" source="uC4ry1dEJNXP7z14yLf--11" target="uC4ry1dEJNXP7z14yLf--6">
          <mxGeometry relative="1" as="geometry" />
        </mxCell>
        <mxCell id="uC4ry1dEJNXP7z14yLf--11" value="SOLTutorialReplayController" style="swimlane;fontStyle=0;childLayout=stackLayout;horizontal=1;startSize=30;horizontalStack=0;resizeParent=1;resizeParentMax=0;resizeLast=0;collapsible=1;marginBottom=0;whiteSpace=wrap;html=1;" vertex="1" parent="1">
          <mxGeometry x="270" y="530" width="220" height="60" as="geometry" />
        </mxCell>
        <mxCell id="uC4ry1dEJNXP7z14yLf--19" style="edgeStyle=orthogonalEdgeStyle;rounded=0;orthogonalLoop=1;jettySize=auto;html=1;endArrow=block;endFill=0;" edge="1" parent="1" source="uC4ry1dEJNXP7z14yLf--16" target="uC4ry1dEJNXP7z14yLf--11">
          <mxGeometry relative="1" as="geometry" />
        </mxCell>
        <mxCell id="uC4ry1dEJNXP7z14yLf--16" value="SOLEpisodeReplayViewController" style="swimlane;fontStyle=0;childLayout=stackLayout;horizontal=1;startSize=30;horizontalStack=0;resizeParent=1;resizeParentMax=0;resizeLast=0;collapsible=1;marginBottom=0;whiteSpace=wrap;html=1;" vertex="1" parent="1">
          <mxGeometry x="270" y="630" width="220" height="60" as="geometry" />
        </mxCell>
        <mxCell id="uC4ry1dEJNXP7z14yLf--21" value="@chuquan.me" style="text;html=1;align=center;verticalAlign=middle;whiteSpace=wrap;rounded=0;" vertex="1" parent="1">
          <mxGeometry x="865" y="690" width="100" height="30" as="geometry" />
        </mxCell>
      </root>
    </mxGraphModel>
  </diagram>
</mxfile>
